<?xml version="1.0" standalone="no"?>
<!DOCTYPE svg PUBLIC "-//W3C//DTD SVG 20010904//EN"
 "http://www.w3.org/TR/2001/REC-SVG-20010904/DTD/svg10.dtd">
<svg version="1.0" xmlns="http://www.w3.org/2000/svg"
 width="300.000000pt" height="300.000000pt" viewBox="0 0 300.000000 300.000000"
 preserveAspectRatio="xMidYMid meet">
<metadata>
Created by potrace 1.10, written by Peter Selinger 2001-2011
</metadata>
<g transform="translate(0.000000,300.000000) scale(0.050000,-0.050000)"
fill="#000000" stroke="none">
<path d="M2394 5899 c-508 -85 -915 -480 -993 -963 -20 -123 27 -633 80 -866
28 -126 26 -132 -31 -106 -83 37 -138 -28 -121 -144 7 -49 20 -162 29 -250 9
-93 33 -197 58 -250 29 -61 43 -129 44 -211 0 -146 37 -209 121 -209 55 0 59
-5 59 -80 0 -108 55 -246 160 -401 48 -70 90 -146 92 -168 2 -23 23 -113 45
-201 64 -256 65 -253 -31 -314 -108 -69 -118 -113 -77 -338 19 -100 30 -186
25 -190 -4 -5 -89 -48 -187 -96 -99 -48 -288 -146 -421 -219 -132 -72 -264
-137 -293 -144 -58 -15 -80 -67 -70 -162 11 -88 104 -109 527 -116 409 -8 433
-14 551 -140 194 -206 452 -264 1095 -245 647 19 1004 182 1004 459 0 103 13
109 442 203 491 108 618 176 618 331 0 100 -57 181 -126 181 -18 0 -170 32
-336 71 -167 39 -336 74 -376 78 -88 8 -96 34 -100 326 -2 236 -24 275 -162
297 -99 16 -99 16 -102 161 -2 87 8 136 39 188 86 146 125 299 121 478 -4 155
0 170 39 188 35 16 43 36 43 114 0 52 14 128 31 168 29 69 28 90 -10 276 -23
110 -41 261 -41 334 0 143 -20 181 -94 181 -43 0 -46 8 -47 135 -1 363 -136
916 -282 1157 -227 376 -777 579 -1323 487z m575 -158 c-78 -78 -682 -128
-779 -65 -34 23 -25 24 70 13 160 -19 333 -12 470 21 105 25 165 37 239 47 12
2 12 -4 0 -16z m395 -149 c113 -54 216 -166 281 -307 65 -138 63 -103 23 -519
-12 -116 -7 -135 80 -331 51 -114 102 -261 112 -326 51 -315 100 -436 100
-248 0 100 48 219 89 219 38 0 60 -82 43 -166 -8 -38 5 -152 30 -281 42 -208
43 -222 11 -310 -18 -51 -33 -122 -33 -157 0 -120 -36 -86 -60 56 -23 134 -22
143 18 180 52 49 52 57 -1 180 -42 98 -43 211 -4 356 9 31 6 44 -7 35 -67 -41
-82 -301 -25 -411 36 -68 38 -86 16 -126 -25 -45 -26 -43 -44 39 -10 47 -27
85 -38 85 -23 0 -6 -158 37 -368 46 -219 41 -480 -11 -612 -113 -286 -341
-585 -341 -447 0 51 -22 21 -121 -167 -83 -158 -100 -178 -210 -241 l-119 -67
-250 8 c-346 12 -402 43 -792 428 -374 370 -451 537 -467 1021 -9 249 -20 351
-39 370 -22 21 -25 7 -13 -84 15 -118 -6 -461 -28 -461 -55 0 -86 60 -84 160
2 77 -12 139 -49 219 -36 78 -56 166 -68 295 -9 101 -22 192 -28 203 -14 22
26 123 49 123 38 0 140 -134 151 -199 38 -229 85 -199 73 47 -7 123 2 271 24
425 l35 237 -73 230 c-189 595 58 889 729 869 306 -9 342 -6 500 39 201 57
391 59 504 4z m-1281 -3518 c18 -33 15 -35 -21 -15 -39 21 -82 80 -82 113 0
21 80 -55 103 -98z m1803 -49 c18 -63 43 -161 57 -218 l24 -103 -118 -195
c-127 -210 -235 -340 -387 -467 l-96 -81 -168 27 c-337 55 -890 301 -1057 470
-91 92 -91 92 -96 248 -9 271 22 285 216 103 228 -214 458 -300 767 -285 243
11 344 75 587 371 64 77 104 107 156 116 56 11 66 19 47 41 -24 29 -12 88 18
88 10 0 32 -52 50 -115z m-240 -6 c-69 -117 -117 -142 -64 -34 25 52 58 95 73
95 21 0 19 -14 -9 -61z m-1072 -353 c133 -78 544 -95 694 -29 50 22 92 33 92
24 0 -9 -25 -26 -55 -38 -348 -136 -676 -88 -910 133 -80 75 -68 99 14 27 38
-33 113 -86 165 -117z m1599 -324 c44 -152 96 -195 75 -62 -13 81 -12 84 28
62 23 -12 67 -22 98 -22 43 -1 49 -5 26 -20 -16 -11 -50 -20 -75 -20 -39 0
-45 -11 -45 -77 0 -96 17 -113 61 -62 64 75 432 16 525 -83 50 -53 30 -70 -45
-38 -102 42 -416 19 -506 -37 -109 -67 -159 -52 -191 57 -42 141 -63 183 -84
170 -40 -24 -117 -203 -138 -318 -30 -161 -83 -236 -234 -332 -71 -45 -163
-112 -204 -148 -195 -175 -315 -187 -852 -82 -386 76 -404 83 -421 171 -6 33
-16 86 -23 119 -16 84 -42 75 -58 -20 l-14 -80 -50 40 c-28 22 -78 40 -111 40
-161 0 -255 227 -131 314 77 54 79 53 85 -64 3 -58 18 -105 41 -126 33 -32 34
-31 20 16 -21 67 -44 480 -26 480 26 0 28 72 3 169 -14 55 -22 102 -18 106 20
21 125 -148 154 -249 19 -64 35 -95 35 -70 3 88 36 123 99 105 57 -16 400
-234 428 -271 9 -13 15 -13 15 0 1 11 12 7 26 -10 24 -30 59 -44 110 -46 14 0
21 -13 15 -28 -7 -18 -2 -23 14 -13 32 20 96 24 84 6 -12 -20 42 -39 113 -39
32 0 58 -7 58 -16 0 -9 25 -18 55 -20 30 -2 91 -6 135 -10 44 -3 89 -1 100 5
11 6 25 12 30 13 76 23 98 35 89 50 -6 10 2 13 17 7 16 -6 42 11 61 40 19 28
40 49 48 46 19 -6 130 103 175 172 19 29 46 53 61 53 14 0 32 19 40 42 41 130
92 140 191 38 101 -104 106 -101 47 25 -55 118 -61 177 -24 236 24 38 26 36
38 -25 7 -37 30 -124 50 -194z m772 -186 c96 -67 59 -77 -45 -12 -55 34 -100
66 -100 70 0 17 91 -20 145 -58z m-896 -281 c-12 -43 -12 -43 16 -7 24 32 28
33 28 5 0 -18 -5 -34 -11 -35 -7 0 -28 -4 -47 -8 -35 -6 -50 48 -22 77 29 28
49 11 36 -32z m-2400 -103 c14 -55 12 -79 -6 -90 -37 -23 -208 -26 -194 -3 12
19 -80 9 -115 -12 -10 -7 -8 7 5 30 22 42 164 123 215 123 14 0 26 10 26 22 0
51 52 -1 69 -70z"/>
<path d="M3461 4940 c-16 -113 -18 -187 -5 -220 15 -39 19 -20 18 90 -1 77 8
158 20 180 12 22 14 58 6 80 -10 27 -22 -14 -39 -130z"/>
<path d="M3059 4499 c-16 -10 -48 -19 -71 -19 -59 0 -132 -133 -88 -161 17
-10 44 -13 60 -6 160 68 511 60 636 -14 86 -50 99 -40 51 41 -72 122 -342 209
-485 156 -30 -11 -53 -10 -61 2 -8 13 -23 13 -42 1z"/>
<path d="M2454 4427 c-7 -6 -75 -15 -152 -19 -203 -11 -421 -107 -494 -219
-41 -62 -22 -88 30 -41 22 20 96 43 175 53 75 11 197 32 270 49 72 16 173 28
224 25 116 -5 132 12 71 77 -56 60 -108 91 -124 75z"/>
<path d="M3145 4187 c-25 -5 -45 -20 -45 -33 -1 -16 -7 -14 -18 4 -10 15 -28
20 -42 12 -19 -12 -19 -18 1 -30 18 -12 14 -27 -18 -62 -76 -81 -58 -109 67
-101 61 4 105 15 99 25 -13 21 111 24 163 5 33 -13 32 -15 -3 -31 -26 -11 -5
-14 58 -8 99 8 203 65 203 112 0 59 -332 136 -465 107z m42 -57 c-6 -17 -1
-43 11 -58 19 -22 9 -29 -52 -37 -100 -12 -104 -6 -36 65 62 65 96 78 77 30z
m282 -13 c81 -37 51 -77 -58 -77 -38 0 -44 8 -36 50 11 56 22 60 94 27z"/>
<path d="M2420 4140 c0 -11 -25 -20 -55 -20 -159 0 -465 -144 -465 -218 0 -24
242 -45 268 -24 41 34 179 63 193 40 15 -23 221 22 222 49 0 8 -37 55 -82 104
-44 48 -81 79 -81 69z m32 -90 c63 -58 62 -60 -32 -77 -69 -13 -70 -12 -72 57
-1 84 28 90 104 20z m-292 -46 c0 -20 11 -47 24 -60 19 -19 1 -24 -80 -24
-121 0 -128 14 -39 74 80 54 95 56 95 10z"/>
<path d="M2862 3959 c-2 -111 45 -278 96 -342 57 -69 65 -39 17 63 -23 50 -57
153 -76 230 l-35 140 -2 -91z"/>
<path d="M2614 3904 c-32 -35 -7 -318 31 -356 21 -21 37 144 25 261 -13 140
-14 142 -56 95z"/>
<path d="M1462 3715 c33 -83 40 -134 32 -244 -10 -150 27 -271 82 -271 23 0
22 11 -7 55 -28 42 -36 97 -38 245 -1 152 -9 203 -40 255 -60 99 -75 78 -29
-40z"/>
<path d="M3110 3458 c0 -52 -17 -74 -115 -143 l-115 -81 -115 33 c-63 18 -146
35 -185 38 -63 5 -69 10 -64 60 6 60 -18 71 -55 26 -66 -80 -19 -140 119 -151
77 -6 150 -24 179 -45 84 -59 163 -45 247 44 52 54 95 81 140 85 76 7 96 70
45 147 -44 68 -81 62 -81 -13z"/>
<path d="M3285 3412 c7 -9 5 -33 -5 -52 -15 -28 -5 -40 61 -66 99 -39 100 -21
4 67 -41 38 -68 61 -60 51z"/>
<path d="M2263 3268 c-47 -40 -81 -77 -76 -81 17 -18 183 87 189 119 9 51 -20
41 -113 -38z"/>
<path d="M3460 3222 c0 -16 91 -78 259 -178 25 -15 25 -26 0 -85 -16 -38 -30
-78 -31 -89 -1 -11 -9 -36 -17 -56 -39 -89 8 -42 57 57 67 137 62 184 -26 231
-89 47 -119 78 -81 80 31 1 -95 54 -136 56 -14 1 -25 -6 -25 -16z"/>
<path d="M2027 2992 l-123 -122 25 -72 c29 -85 110 -205 127 -189 6 6 1 22
-12 35 -13 13 -24 36 -24 51 0 15 -20 54 -44 87 l-45 60 125 110 c68 61 124
124 124 140 0 45 -22 30 -153 -100z"/>
<path d="M3498 3017 c-41 -32 -99 -44 -260 -57 -114 -9 -249 -31 -299 -48 -58
-20 -111 -25 -148 -15 -32 8 -103 8 -159 0 -248 -38 -371 -42 -432 -17 -108
45 -92 2 54 -138 378 -365 1004 -375 1181 -18 74 148 143 338 122 335 -4 -1
-30 -20 -59 -42z m-49 -160 c-138 -277 -223 -327 -549 -327 -211 0 -239 5
-340 55 -110 55 -446 294 -370 264 72 -29 258 -34 390 -9 88 16 156 17 212 5
62 -15 95 -12 136 9 30 16 141 38 246 48 105 11 219 32 254 46 83 35 83 33 21
-91z"/>
<path d="M3931 2995 c-29 -93 -18 -177 15 -120 25 42 35 145 15 145 -12 0 -26
-11 -30 -25z"/>
<path d="M3849 2746 c-26 -86 -118 -248 -231 -405 -67 -93 -106 -156 -85 -140
57 45 127 116 127 128 0 6 32 56 70 111 39 55 70 110 70 123 0 12 14 33 30 45
17 12 34 42 39 67 5 25 14 53 20 64 6 10 2 24 -9 31 -11 7 -25 -4 -31 -24z"/>
<path d="M1970 2463 c50 -67 101 -128 113 -135 11 -7 -22 45 -73 115 -52 70
-102 130 -113 134 -11 4 22 -47 73 -114z"/>
<path d="M2400 2048 c0 -39 232 -203 254 -180 6 5 -20 24 -57 43 -37 18 -96
61 -132 95 -36 34 -65 53 -65 42z"/>
<path d="M3331 1995 c-17 -25 -64 -70 -105 -100 -40 -30 -60 -55 -45 -55 16 0
61 30 99 66 94 87 130 134 104 134 -12 0 -36 -20 -53 -45z"/>
<path d="M2143 1235 c-35 -35 -28 -128 27 -383 28 -127 50 -262 50 -300 0
-155 102 -85 180 122 95 250 74 365 -87 483 -141 103 -143 105 -170 78z m170
-326 c5 -46 1 -68 -12 -59 -12 7 -21 45 -21 85 0 89 23 72 33 -26z"/>
<path d="M2073 935 c-7 -80 -18 -167 -24 -195 l-12 -50 29 48 c25 42 50 342
28 342 -4 0 -14 -65 -21 -145z"/>
</g>
</svg>
